<?xml version="1.0" standalone="no"?>
<!DOCTYPE svg PUBLIC "-//W3C//DTD SVG 20010904//EN"
 "http://www.w3.org/TR/2001/REC-SVG-20010904/DTD/svg10.dtd">
<svg version="1.0" xmlns="http://www.w3.org/2000/svg"
 width="500.000000pt" height="500.000000pt" viewBox="0 0 500.000000 500.000000"
 preserveAspectRatio="xMidYMid meet">

<g transform="translate(0.000000,500.000000) scale(0.100000,-0.100000)"
fill="#000000" stroke="none">
<path d="M0 2500 l0 -2500 2500 0 2500 0 0 2500 0 2500 -2500 0 -2500 0 0
-2500z m2620 2276 c112 -24 217 -61 316 -112 l89 -45 253 1 253 1 170 64 c94
36 176 65 183 65 9 0 2 -78 -24 -294 -19 -162 -38 -298 -42 -302 -4 -4 -32 9
-63 29 -30 21 -58 37 -62 37 -10 -1 -143 -195 -143 -209 0 -6 11 -43 24 -83
104 -310 81 -651 -63 -943 -170 -346 -460 -584 -826 -680 -496 -129 -1026 59
-1332 472 -163 220 -245 471 -246 753 -1 352 123 650 373 900 202 203 437 317
745 364 63 9 322 -2 395 -18z m-908 -2783 c53 -31 72 -66 72 -129 -2 -101 -58
-144 -186 -144 l-78 0 0 -65 0 -65 -35 0 -35 0 0 216 0 217 115 -6 c86 -4 123
-10 147 -24z m415 0 c87 -45 97 -179 19 -240 -14 -12 -26 -24 -26 -27 0 -4 18
-34 40 -66 22 -32 40 -61 40 -64 0 -4 -18 -6 -39 -6 -38 0 -41 3 -77 65 l-38
65 -58 0 -58 0 0 -65 0 -65 -40 0 -40 0 0 208 c0 115 3 212 8 217 4 4 58 5
120 2 83 -4 122 -10 149 -24z m414 16 c40 -9 62 -22 99 -58 86 -83 93 -194 18
-285 -82 -99 -247 -104 -342 -10 -87 87 -72 245 31 318 62 43 112 52 194 35z
m527 -26 l3 -33 -105 0 -106 0 0 -60 0 -60 95 0 95 0 0 -35 0 -35 -95 0 -95 0
0 -85 0 -85 -40 0 -40 0 0 208 c0 115 3 212 7 216 4 3 68 5 142 4 l136 -3 3
-32z m132 -178 l0 -215 -35 0 -35 0 0 215 0 215 35 0 35 0 0 -215z m400 180
l0 -35 -65 0 -65 0 0 -180 0 -180 -40 0 -40 0 0 180 0 180 -65 0 c-65 0 -65 0
-65 28 0 16 3 32 7 35 3 4 80 7 170 7 l163 0 0 -35z m-1626 -630 c49 -23 76
-68 76 -123 0 -103 -59 -152 -184 -152 l-76 0 0 -65 0 -65 -40 0 -40 0 0 208
c0 115 3 212 8 216 14 15 216 0 256 -19z m454 -12 l3 -33 -120 0 -121 0 0 -55
0 -55 105 0 105 0 0 -35 0 -35 -105 0 -105 0 0 -55 0 -55 120 0 120 0 0 -35 0
-35 -155 0 -155 0 0 215 0 216 153 -3 152 -3 3 -32z m383 -164 c47 -108 89
-204 92 -213 5 -13 -1 -16 -33 -16 -37 0 -40 3 -59 45 l-20 45 -106 0 -106 0
-20 -45 c-19 -43 -22 -45 -60 -45 -22 0 -38 4 -35 8 4 7 136 304 173 390 12
30 17 33 51 30 l36 -3 87 -196z m229 92 l5 -103 98 106 c93 100 101 106 138
106 44 0 48 -8 18 -36 -12 -10 -48 -49 -81 -86 l-59 -67 78 -108 c43 -59 82
-114 86 -120 6 -10 -3 -13 -35 -13 -43 0 -44 1 -112 91 l-68 91 -34 -33 c-31
-30 -34 -38 -34 -91 l0 -58 -40 0 -40 0 0 208 c0 115 3 212 7 216 4 4 21 6 38
4 l30 -3 5 -104z m-1602 -558 l3 -33 -70 0 -71 0 0 -180 0 -180 -35 0 -35 0 0
180 0 180 -70 0 -70 0 0 28 c0 16 3 32 7 36 4 3 81 5 172 4 l166 -3 3 -32z
m329 10 c87 -45 97 -179 19 -240 -14 -12 -26 -24 -26 -27 0 -4 18 -34 40 -66
22 -32 40 -61 40 -64 0 -4 -18 -6 -39 -6 -38 0 -41 3 -77 65 l-38 65 -58 0
-58 0 0 -65 0 -65 -40 0 -40 0 0 208 c0 115 3 212 8 217 4 4 58 5 120 2 83 -4
122 -10 149 -24z m377 5 c15 -24 176 -391 176 -402 0 -3 -17 -6 -39 -6 -36 0
-39 2 -55 45 l-18 45 -108 0 -108 0 -19 -45 c-17 -42 -20 -45 -55 -45 -21 0
-38 2 -38 5 0 6 174 397 183 413 14 21 65 14 81 -10z m517 -10 c23 -12 56 -40
73 -61 27 -34 31 -47 34 -115 4 -73 2 -79 -30 -126 -50 -75 -88 -90 -235 -94
l-123 -4 0 218 0 217 120 -6 c100 -4 126 -9 161 -29z m259 -183 l0 -215 -35 0
-35 0 0 215 0 215 35 0 35 0 0 -215z m292 65 l113 -150 3 150 3 150 34 0 35 0
0 -215 0 -215 -37 1 c-37 0 -41 4 -145 147 l-108 147 0 -148 0 -147 -40 0 -40
0 0 208 c0 115 3 212 7 215 3 4 19 7 35 7 24 0 42 -19 140 -150z m606 119 c46
-23 49 -29 27 -63 l-15 -23 -48 24 c-179 92 -321 -131 -160 -250 31 -23 106
-28 151 -9 25 11 27 15 27 72 l0 60 30 0 30 0 0 -84 0 -84 -49 -21 c-113 -48
-236 -19 -297 71 -87 128 -23 289 131 329 44 11 124 1 173 -22z"/>
<path d="M2250 4714 c-469 -60 -851 -370 -995 -809 -29 -88 -63 -270 -53 -280
4 -4 36 10 72 30 l66 37 0 94 0 94 184 0 184 0 8 -111 7 -111 91 -43 c50 -23
95 -40 99 -38 4 3 7 100 6 216 l-1 212 156 3 156 3 1 -28 c2 -24 2 -25 6 -5 3
14 12 22 24 22 18 0 19 -8 19 -125 0 -69 3 -125 8 -125 4 0 51 44 105 98 l97
97 0 158 0 157 155 0 155 0 2 -37 c1 -37 1 -37 5 -5 3 23 9 32 22 32 16 0 19
-14 25 -122 4 -68 9 -124 11 -126 6 -6 185 -28 190 -23 3 2 5 120 5 262 l0
258 -55 35 c-118 76 -253 131 -396 162 -74 15 -292 26 -359 18z"/>
<path d="M3356 3885 c-106 -148 -113 -152 -229 -136 -224 31 -396 51 -434 51
-40 0 -47 -5 -225 -176 -101 -97 -184 -180 -186 -185 -2 -4 -41 -42 -88 -83
-101 -90 -111 -92 -222 -40 -262 123 -449 204 -471 204 -14 0 -57 -16 -95 -35
-64 -33 -99 -46 -67 -26 22 14 -3 66 -27 56 -9 -3 -38 -11 -64 -16 -47 -10
-48 -12 -48 -48 0 -56 29 -215 56 -310 69 -237 241 -465 459 -607 199 -130
418 -194 660 -194 430 0 808 214 1026 581 127 213 183 583 130 846 -23 111
-63 236 -77 239 -5 2 -49 -53 -98 -121z m50 -873 c-86 -170 -272 -351 -464
-450 -291 -152 -625 -183 -932 -87 -269 84 -528 288 -646 507 l-29 53 5 174 5
175 72 39 c40 21 85 39 101 39 15 1 67 -17 115 -40 l87 -41 0 -335 c0 -189 -4
-336 -9 -336 -26 0 -183 121 -266 205 -32 33 -49 47 -37 30 48 -63 170 -179
249 -236 73 -52 230 -139 250 -139 5 0 8 143 7 317 -1 175 2 337 5 360 l6 42
75 -34 c41 -19 83 -35 93 -35 30 0 59 19 125 83 l62 61 2 -104 c1 -58 2 -122
3 -143 0 -20 2 -37 5 -37 3 0 49 34 103 75 l97 76 0 171 0 171 84 83 c46 46
96 86 111 90 15 4 60 1 101 -6 l74 -13 0 -242 0 -243 75 -56 c41 -31 77 -56
80 -56 3 0 5 19 3 43 -2 35 -7 43 -25 45 -20 3 -23 9 -23 47 l0 44 43 3 42 3
3 196 2 196 48 -8 c26 -4 70 -8 98 -8 57 -1 65 6 165 134 l54 69 3 -417 2
-417 -24 -48z"/>
<path d="M2383 2937 c-166 -128 -301 -236 -299 -241 6 -23 29 -11 143 76 66
51 196 151 288 221 149 114 169 127 186 115 23 -16 179 -135 322 -246 59 -46
107 -87 107 -91 0 -4 -11 -14 -25 -21 -14 -7 -25 -19 -25 -27 0 -19 7 -17 61
23 44 32 55 54 28 54 -7 0 -217 159 -449 341 l-36 27 -301 -231z"/>
<path d="M3319 2933 l-24 -28 28 24 c25 23 32 31 24 31 -2 0 -14 -12 -28 -27z"/>
<path d="M2570 2825 l0 -55 50 0 50 0 0 55 0 55 -50 0 -50 0 0 -55z"/>
<path d="M2714 2866 c-3 -8 -4 -32 -2 -53 l4 -38 52 -3 52 -3 0 55 0 56 -50 0
c-35 0 -52 -5 -56 -14z"/>
<path d="M2583 2723 c-8 -3 -13 -24 -13 -54 l0 -49 50 0 50 0 0 49 c0 42 -3
49 -22 55 -26 7 -48 7 -65 -1z"/>
<path d="M2720 2676 l0 -56 50 0 50 0 0 50 c0 42 -3 50 -19 50 -10 0 -33 3
-50 6 l-31 7 0 -57z"/>
<path d="M2980 2670 c-11 -7 -11 -10 -2 -10 7 0 10 -5 7 -11 -4 -6 2 -5 13 2
12 7 18 17 16 21 -7 10 -16 10 -34 -2z"/>
<path d="M1958 2583 c20 -8 13 -25 -8 -18 -11 3 -20 4 -20 1 0 -6 82 -33 156
-50 l62 -14 0 23 c0 21 -10 25 -87 44 -79 19 -135 27 -103 14z"/>
<path d="M2358 2483 c6 -2 18 -2 25 0 6 3 1 5 -13 5 -14 0 -19 -2 -12 -5z"/>
<path d="M1491 3694 c0 -11 3 -14 6 -6 3 7 2 16 -1 19 -3 4 -6 -2 -5 -13z"/>
<path d="M1248 3597 c-45 -19 -48 -23 -48 -58 l0 -38 53 36 c28 19 50 40 48
47 -2 6 -4 17 -4 24 0 6 -1 12 -1 11 -1 -1 -22 -10 -48 -22z"/>
<path d="M1520 1865 l0 -87 68 4 c93 5 122 24 122 82 0 62 -22 78 -115 84
l-75 5 0 -88z"/>
<path d="M1930 1865 l0 -85 58 1 c76 1 101 9 125 41 15 20 18 35 13 63 -9 46
-49 65 -136 65 l-60 0 0 -85z"/>
<path d="M2413 1929 c-44 -21 -83 -82 -83 -127 0 -66 61 -135 130 -147 32 -5
50 -2 87 17 110 55 111 206 3 260 -46 24 -86 23 -137 -3z"/>
<path d="M1790 1225 l0 -85 48 0 c71 0 117 16 130 46 36 79 -9 124 -124 124
l-54 0 0 -85z"/>
<path d="M2650 1213 c-18 -43 -35 -84 -37 -90 -4 -10 14 -13 71 -13 42 0 76 1
76 3 0 4 -71 171 -75 175 -1 1 -17 -33 -35 -75z"/>
<path d="M1570 595 l0 -85 58 1 c76 1 101 9 125 41 15 20 18 35 13 63 -9 46
-49 65 -136 65 l-60 0 0 -85z"/>
<path d="M2058 565 l-36 -85 74 0 c41 0 74 3 74 8 0 14 -64 162 -70 162 -4 0
-23 -38 -42 -85z"/>
<path d="M2450 536 l0 -146 78 0 c91 0 129 18 155 73 32 68 14 146 -43 187
-26 18 -50 24 -111 28 l-79 5 0 -147z"/>
</g>
</svg>
