<?xml version="1.0" standalone="no"?>
<!DOCTYPE svg PUBLIC "-//W3C//DTD SVG 20010904//EN"
 "http://www.w3.org/TR/2001/REC-SVG-20010904/DTD/svg10.dtd">
<svg version="1.0" xmlns="http://www.w3.org/2000/svg"
 width="500.000000pt" height="500.000000pt" viewBox="0 0 500.000000 500.000000"
 preserveAspectRatio="xMidYMid meet">

<g transform="translate(0.000000,500.000000) scale(0.100000,-0.100000)"
fill="#000000" stroke="none">
<path d="M1180 3271 c0 -20 5 -21 100 -21 l100 0 0 -275 0 -275 115 0 115 0 0
275 0 275 128 0 c149 0 214 -15 268 -62 74 -65 98 -160 92 -357 l-4 -131 92 0
c105 0 97 -8 114 113 24 166 -64 344 -205 412 -113 56 -131 58 -537 62 -378 5
-378 5 -378 -16z"/>
<path d="M2610 3275 c0 -12 17 -15 95 -15 l95 0 2 -277 3 -278 113 -3 112 -3
0 282 0 282 143 -5 c161 -6 200 -17 259 -75 61 -60 73 -110 73 -311 l0 -172
87 0 87 0 17 56 c24 85 16 221 -18 296 -52 112 -154 191 -289 223 -95 22 -779
22 -779 0z"/>
<path d="M1348 2574 c-5 -4 -8 -34 -8 -66 0 -45 3 -58 15 -58 8 0 15 6 15 14
0 8 12 17 27 21 51 13 70 48 39 74 -18 15 -79 25 -88 15z m67 -44 c0 -8 -10
-16 -22 -18 -18 -3 -23 2 -23 18 0 16 5 21 23 18 12 -2 22 -10 22 -18z"/>
<path d="M1536 2569 c-9 -29 -1 -112 12 -116 6 -3 12 2 12 11 0 25 18 28 37 6
17 -20 43 -27 43 -12 0 4 -5 13 -11 19 -8 8 -8 13 0 17 13 8 15 62 3 70 -5 3
-28 8 -50 12 -31 5 -43 3 -46 -7z m74 -39 c0 -15 -7 -20 -25 -20 -18 0 -25 5
-25 20 0 15 7 20 25 20 18 0 25 -5 25 -20z"/>
<path d="M1745 2555 c-30 -29 -32 -58 -5 -85 39 -39 120 -12 120 40 0 27 -43
70 -70 70 -11 0 -32 -11 -45 -25z m73 -17 c18 -18 14 -46 -7 -58 -25 -13 -48
-4 -56 21 -12 38 35 65 63 37z"/>
<path d="M1947 2574 c-4 -4 -7 -34 -7 -66 0 -44 4 -58 14 -58 8 0 16 10 18 23
2 16 11 23 31 25 37 4 35 22 -3 22 -20 0 -30 5 -30 15 0 11 11 15 36 15 24 0
34 4 32 13 -5 13 -79 22 -91 11z"/>
<path d="M2120 2516 c0 -53 3 -66 15 -66 13 0 15 11 13 62 -2 38 -8 63 -15 66
-10 3 -13 -14 -13 -62z"/>
<path d="M2230 2565 c0 -8 9 -15 20 -15 17 0 20 -7 20 -50 0 -27 5 -50 10 -50
6 0 10 23 10 50 0 43 3 50 20 50 11 0 20 7 20 15 0 11 -12 15 -50 15 -38 0
-50 -4 -50 -15z"/>
<path d="M2530 2515 c0 -51 3 -65 15 -65 8 0 15 6 15 14 0 8 14 17 30 21 61
13 60 76 -1 89 -59 11 -59 11 -59 -59z m75 15 c0 -8 -10 -16 -22 -18 -18 -3
-23 2 -23 18 0 16 5 21 23 18 12 -2 22 -10 22 -18z"/>
<path d="M2720 2516 l0 -66 45 0 c25 0 45 5 45 10 0 6 -13 10 -29 10 -29 0
-30 2 -33 52 -2 30 -8 53 -15 56 -10 3 -13 -14 -13 -62z"/>
<path d="M2890 2535 c0 -64 13 -85 53 -85 46 0 57 16 57 78 0 69 -23 67 -30
-4 -5 -46 -8 -50 -39 -45 -6 0 -11 22 -13 48 -4 64 -28 71 -28 8z"/>
<path d="M3097 2573 c-4 -3 -7 -33 -7 -65 0 -45 3 -58 15 -58 11 0 15 11 15
38 l1 37 30 -37 c46 -57 61 -51 57 24 -2 38 -8 63 -15 66 -9 2 -13 -9 -13 -35
l-1 -38 -33 38 c-35 39 -39 41 -49 30z"/>
<path d="M3315 2555 c-48 -47 -16 -109 53 -103 32 3 37 7 40 31 2 19 -1 27
-12 27 -9 0 -16 -9 -16 -20 0 -24 -22 -26 -44 -4 -32 31 -7 70 39 62 32 -7 42
8 16 21 -30 17 -50 13 -76 -14z"/>
<path d="M3500 2515 l0 -65 50 0 c28 0 50 5 50 10 0 6 -16 10 -35 10 -24 0
-35 5 -35 15 0 10 10 15 30 15 17 0 30 5 30 10 0 6 -13 10 -30 10 -20 0 -30 5
-30 15 0 10 10 15 30 15 20 0 30 5 30 15 0 11 -12 15 -45 15 l-45 0 0 -65z"/>
<path d="M1380 2035 l0 -265 -100 0 c-93 0 -100 -1 -100 -20 0 -20 7 -20 316
-20 295 0 315 1 312 18 -3 14 -17 17 -101 20 l-97 3 0 264 0 265 -115 0 -115
0 0 -265z"/>
<path d="M2800 2050 l0 -250 -95 0 c-88 0 -95 -1 -95 -20 0 -20 7 -20 305 -20
298 0 305 0 305 20 0 19 -7 20 -95 20 l-95 0 0 250 0 250 -115 0 -115 0 0
-250z"/>
<path d="M1421 1498 c0 -31 3 -37 8 -24 7 18 3 66 -5 66 -2 0 -4 -19 -3 -42z"/>
<path d="M1448 1533 c7 -3 16 -2 19 1 4 3 -2 6 -13 5 -11 0 -14 -3 -6 -6z"/>
<path d="M1573 1500 c0 -25 2 -35 4 -22 2 12 2 32 0 45 -2 12 -4 2 -4 -23z"/>
<path d="M2012 1498 c1 -38 2 -39 5 -10 4 30 6 32 21 20 12 -9 12 -7 -2 10
-11 12 -21 22 -23 22 -1 0 -2 -19 -1 -42z"/>
<path d="M2071 1512 c-1 -24 -5 -31 -13 -26 -8 5 -7 0 2 -11 14 -18 15 -18 18
3 2 12 1 32 -1 45 -3 15 -5 12 -6 -11z"/>
<path d="M2192 1528 c-7 -7 -12 -21 -11 -32 1 -18 2 -17 8 4 4 14 17 27 31 31
21 6 22 7 5 8 -12 1 -26 -4 -33 -11z"/>
<path d="M2343 1500 c0 -25 2 -35 4 -22 2 12 2 32 0 45 -2 12 -4 2 -4 -23z"/>
<path d="M2612 1503 c-2 -41 -1 -43 26 -42 22 1 23 2 5 6 -17 3 -23 13 -26 41
l-4 37 -1 -42z"/>
<path d="M2762 1528 c-26 -26 -6 -69 33 -67 17 1 16 2 -5 8 -18 5 -25 14 -25
31 0 17 7 26 25 31 21 6 22 7 5 8 -12 1 -26 -4 -33 -11z"/>
<path d="M2932 1528 c-6 -6 -12 -16 -12 -22 0 -5 6 -2 13 8 19 26 52 17 52
-14 0 -17 -7 -26 -25 -32 -25 -7 -25 -7 -1 -5 13 1 29 10 35 20 22 35 -32 75
-62 45z"/>
<path d="M1705 1510 c10 -11 20 -20 23 -20 3 0 -3 9 -13 20 -10 11 -20 20 -23
20 -3 0 3 -9 13 -20z"/>
<path d="M1738 1500 c-3 -17 -1 -33 4 -36 4 -3 8 11 8 30 0 44 -6 47 -12 6z"/>
<path d="M3097 1486 c-4 -10 -1 -13 8 -9 8 3 12 9 9 14 -7 12 -11 11 -17 -5z"/>
<path d="M3140 1491 c0 -6 4 -13 10 -16 6 -3 7 1 4 9 -7 18 -14 21 -14 7z"/>
<path d="M2450 1479 c0 -5 5 -7 10 -4 6 3 10 8 10 11 0 2 -4 4 -10 4 -5 0 -10
-5 -10 -11z"/>
<path d="M3268 1463 c6 -2 18 -2 25 0 6 3 1 5 -13 5 -14 0 -19 -2 -12 -5z"/>
</g>
</svg>
